<svg width="298" height="142" viewBox="0 0 298 142" fill="none" xmlns="http://www.w3.org/2000/svg">
<path fill-rule="evenodd" clip-rule="evenodd" d="M94 0C88.4771 0 84 4.47715 84 10V39H10C4.47714 39 0 43.4772 0 49V113C0 118.523 4.47714 123 10 123H155C160.523 123 165 118.523 165 113V85H255C260.523 85 265 80.5229 265 75V32C265 26.4772 260.523 22 255 22H185V10C185 4.47715 180.523 0 175 0H94ZM214 114C214 108.477 218.477 104 224 104H288C293.523 104 298 108.477 298 114V132C298 137.523 293.523 142 288 142H224C218.477 142 214 137.523 214 132V114Z" fill="black" fill-opacity="0.10"/>
</svg>
