<svg width="305" height="148" viewBox="0 0 305 148" fill="none" xmlns="http://www.w3.org/2000/svg">
<path fill-rule="evenodd" clip-rule="evenodd" d="M10 0C4.47717 0 0 4.47715 0 10V62C0 67.5229 4.47717 72 10 72H41V94C41 99.5229 45.4772 104 51 104H104V123C104 128.523 108.477 133 114 133H258C263.523 133 268 128.523 268 123V93C268 92.6625 267.983 92.3289 267.951 92H295C300.523 92 305 87.5229 305 82V52C305 46.4771 300.523 42 295 42H268V25C268 19.4772 263.523 15 258 15H161C155.477 15 151 19.4772 151 25V39H113V10C113 4.47715 108.523 0 103 0H10ZM230 60H205V83H230.049C230.017 82.6711 230 82.3375 230 82V60ZM10 118C4.47717 118 0 122.477 0 128V138C0 143.523 4.47717 148 10 148H68C73.5228 148 78 143.523 78 138V128C78 122.477 73.5228 118 68 118H10Z" fill="black" fill-opacity="0.10"/>
</svg>
